:FULLY-SPECIFIED
:FORCE-ALL-JOINTS-BE-3DOF
:DEGREES
1
root -2.95645 16.8291 -36.2757 3.79203 -0.409345 -2.77144
lfemur -18.1857 -3.85478 -7.37129
ltibia 37.6337 0 0
lfoot -17.8071 6.78532 0
ltoes -26.1578 0 0
rfemur -19.1521 0.15077 14.7318
rtibia 40.3652 0 0
rfoot -23.1652 -2.86285 0
rtoes -21.0274 0 0
lowerback 7.02591 2.55716 -1.97249
upperback -3.14202 3.31583 1.27229
thorax -7.43554 1.75645 1.99661
lowerneck -4.68188 -4.04088 -6.84108
upperneck 4.69893 -5.30737 6.47589
head 2.76948 -2.5844 3.14763
lclavicle 1.91563e-015 -9.24349e-015 0
lhumerus -27.0689 -5.33108 89.6453
lradius 25.7364 0 0
lwrist -30.6252 0 0
lhand -28.8405 29.9909 0
lfingers 7.12502 0 0
lthumb -2.19771 59.9594 0
rclavicle 1.91563e-015 -9.24349e-015 0
rhumerus -32.8355 4.71181 -81.727
rradius 32.9783 0 0
rwrist 3.84135 0 0
rhand -24.1523 -25.0894 0
rfingers 7.12502 0 0
rthumb 2.33029 -55.0564 0
2
root -2.95809 16.8272 -36.279 3.85495 -0.450004 -2.78992
lfemur -18.2198 -3.70838 -7.39106
ltibia 37.5901 -0 0
lfoot -17.7927 7.00404 -0.00183456
ltoes -26.3351 0 0
rfemur -19.2003 0.123811 14.7581
rtibia 40.3073 -0 0
rfoot -23.0809 -2.67076 0.00328772
rtoes -20.627 0 0
lowerback 6.93279 2.55328 -1.94802
upperback -3.13962 3.31489 1.27763
thorax -7.3778 1.75467 1.9915
lowerneck -4.68192 -4.0312 -6.8448
upperneck 4.70593 -5.29472 6.48133
head 2.77121 -2.57804 3.15088
lclavicle 3.91202e-015 -1.45858e-014 0
lhumerus -27.0275 -5.3372 89.6501
lradius 25.7684 -0 0
lwrist -30.5808 0 0
lhand -28.8317 29.9924 -1.37162e-005
lfingers 7.12502 -0 0
lthumb -2.18921 59.9609 -1.32491e-005
rclavicle 3.91202e-015 -1.45858e-014 0
rhumerus -32.7711 4.68896 -81.7112
rradius 32.9241 -0 0
rwrist 3.85664 0 0
rhand -24.1035 -25.1984 -0.00104702
rfingers 7.12502 -0 0
rthumb 2.37741 -55.1648 -0.00100924
3
root -2.95973 16.8253 -36.2824 3.90228 -0.491308 -2.80517
lfemur -18.2456 -3.53793 -7.41606
ltibia 37.5582 -0 0
lfoot -17.7839 7.19654 -0.00345265
ltoes -26.4441 0 0
rfemur -19.2442 0.0805723 14.7807
rtibia 40.2676 -0 0
rfoot -23.0016 -2.46518 0.00608393
rtoes -20.1787 0 0
lowerback 6.86514 2.54853 -1.92541
upperback -3.13424 3.31213 1.28293
thorax -7.33163 1.75209 1.98682
lowerneck -4.67866 -4.02062 -6.84793
upperneck 4.71048 -5.28098 6.48658
head 2.77137 -2.57118 3.15403
lclavicle 3.91202e-015 -1.45858e-014 0
lhumerus -26.9852 -5.34163 89.6577
lradius 25.7982 -0 0
lwrist -30.5358 0 0
lhand -28.8236 29.9925 -2.60396e-005
lfingers 7.12502 -0 0
lthumb -2.18142 59.9612 -2.51626e-005
rclavicle 3.91202e-015 -1.45858e-014 0
rhumerus -32.7071 4.65871 -81.6907
rradius 32.8608 -0 0
rwrist 3.86823 0 0
rhand -24.0489 -25.3083 -0.00203992
rfingers 7.12502 -0 0
rthumb 2.43013 -55.274 -0.00196501
4
root -2.96137 16.8234 -36.2857 3.93496 -0.53307 -2.81737
lfemur -18.2634 -3.34577 -7.44583
ltibia 37.5373 -0 0
lfoot -17.7805 7.36398 -0.0048335
ltoes -26.4891 0 0
rfemur -19.2839 0.0223689 14.7998
rtibia 40.2448 -0 0
rfoot -22.9271 -2.24781 0.00839337
rtoes -19.6875 0 0
lowerback 6.82136 2.54298 -1.90462
upperback -3.12613 3.30771 1.28816
thorax -7.29637 1.74879 1.98258
lowerneck -4.67235 -4.00922 -6.85051
upperneck 4.71272 -5.26628 6.49165
head 2.7701 -2.56389 3.15708
lclavicle 3.91202e-015 -1.45858e-014 0
lhumerus -26.9424 -5.34447 89.668
lradius 25.8258 -0 0
lwrist -30.4906 0 0
lhand -28.8163 29.9915 -3.67679e-005
lfingers 7.12502 -0 0
lthumb -2.1743 59.9602 -3.55422e-005
rclavicle 3.91202e-015 -1.45858e-014 0
rhumerus -32.6436 4.62168 -81.6658
rradius 32.7892 -0 0
rwrist 3.87634 0 0
rhand -23.9892 -25.4187 -0.00295527
rfingers 7.12502 -0 0
rthumb 2.48785 -55.3837 -0.00284503
5
root -2.96301 16.8215 -36.289 3.95394 -0.575098 -2.82666
lfemur -18.2739 -3.13423 -7.47987
ltibia 37.5268 -0 0
lfoot -17.782 7.50753 -0.00596592
ltoes -26.4748 0 0
rfemur -19.3195 -0.0494837 14.8157
rtibia 40.2379 -0 0
rfoot -22.8575 -2.02038 0.0102279
rtoes -19.1584 0 0
lowerback 6.79991 2.53669 -1.88559
upperback -3.1155 3.30175 1.2933
thorax -7.27138 1.74483 1.97874
lowerneck -4.66323 -3.99712 -6.85255
upperneck 4.71283 -5.25073 6.49653
head 2.76749 -2.55621 3.16003
lclavicle 3.91202e-015 -1.45858e-014 0
lhumerus -26.8991 -5.34582 89.6806
lradius 25.8512 -0 0
lwrist -30.4453 0 0
lhand -28.8096 29.9893 -4.57681e-005
lfingers 7.12502 -0 0
lthumb -2.16785 59.9581 -4.42567e-005
rclavicle 3.91202e-015 -1.45858e-014 0
rhumerus -32.5809 4.57851 -81.637
rradius 32.7102 -0 0
rwrist 3.88119 0 0
rhand -23.9248 -25.5292 -0.0037728
rfingers 7.12502 -0 0
rthumb 2.54998 -55.4934 -0.00363007
